<svg aria-roledescription="er" role="graphics-document document" viewBox="0 0 611.8031005859375 730" style="max-width: 611.803px; background-color: rgb(255, 255, 255);" xmlns:xlink="http://www.w3.org/1999/xlink" xmlns="http://www.w3.org/2000/svg" width="100%" id="mermaid-1692631759151"><style>#mermaid-1692631759151{font-family:"trebuchet ms",verdana,arial,sans-serif;font-size:16px;fill:#333;}#mermaid-1692631759151 .error-icon{fill:#552222;}#mermaid-1692631759151 .error-text{fill:#552222;stroke:#552222;}#mermaid-1692631759151 .edge-thickness-normal{stroke-width:2px;}#mermaid-1692631759151 .edge-thickness-thick{stroke-width:3.5px;}#mermaid-1692631759151 .edge-pattern-solid{stroke-dasharray:0;}#mermaid-1692631759151 .edge-pattern-dashed{stroke-dasharray:3;}#mermaid-1692631759151 .edge-pattern-dotted{stroke-dasharray:2;}#mermaid-1692631759151 .marker{fill:#333333;stroke:#333333;}#mermaid-1692631759151 .marker.cross{stroke:#333333;}#mermaid-1692631759151 svg{font-family:"trebuchet ms",verdana,arial,sans-serif;font-size:16px;}#mermaid-1692631759151 .entityBox{fill:#ECECFF;stroke:#9370DB;}#mermaid-1692631759151 .attributeBoxOdd{fill:#ffffff;stroke:#9370DB;}#mermaid-1692631759151 .attributeBoxEven{fill:#f2f2f2;stroke:#9370DB;}#mermaid-1692631759151 .relationshipLabelBox{fill:hsl(80, 100%, 96.2745098039%);opacity:0.7;background-color:hsl(80, 100%, 96.2745098039%);}#mermaid-1692631759151 .relationshipLabelBox rect{opacity:0.5;}#mermaid-1692631759151 .relationshipLine{stroke:#333333;}#mermaid-1692631759151 .entityTitleText{text-anchor:middle;font-size:18px;fill:#333;}#mermaid-1692631759151 :root{--mermaid-font-family:"trebuchet ms",verdana,arial,sans-serif;}</style><g/><defs><marker orient="auto" markerHeight="18" markerWidth="18" refY="9" refX="0" id="ONLY_ONE_START"><path d="M9,0 L9,18 M15,0 L15,18" fill="none" stroke="gray"/></marker></defs><defs><marker orient="auto" markerHeight="18" markerWidth="18" refY="9" refX="18" id="ONLY_ONE_END"><path d="M3,0 L3,18 M9,0 L9,18" fill="none" stroke="gray"/></marker></defs><defs><marker orient="auto" markerHeight="18" markerWidth="30" refY="9" refX="0" id="ZERO_OR_ONE_START"><circle r="6" cy="9" cx="21" fill="white" stroke="gray"/><path d="M9,0 L9,18" fill="none" stroke="gray"/></marker></defs><defs><marker orient="auto" markerHeight="18" markerWidth="30" refY="9" refX="30" id="ZERO_OR_ONE_END"><circle r="6" cy="9" cx="9" fill="white" stroke="gray"/><path d="M21,0 L21,18" fill="none" stroke="gray"/></marker></defs><defs><marker orient="auto" markerHeight="36" markerWidth="45" refY="18" refX="18" id="ONE_OR_MORE_START"><path d="M0,18 Q 18,0 36,18 Q 18,36 0,18 M42,9 L42,27" fill="none" stroke="gray"/></marker></defs><defs><marker orient="auto" markerHeight="36" markerWidth="45" refY="18" refX="27" id="ONE_OR_MORE_END"><path d="M3,9 L3,27 M9,18 Q27,0 45,18 Q27,36 9,18" fill="none" stroke="gray"/></marker></defs><defs><marker orient="auto" markerHeight="36" markerWidth="57" refY="18" refX="18" id="ZERO_OR_MORE_START"><circle r="6" cy="18" cx="48" fill="white" stroke="gray"/><path d="M0,18 Q18,0 36,18 Q18,36 0,18" fill="none" stroke="gray"/></marker></defs><defs><marker orient="auto" markerHeight="36" markerWidth="57" refY="18" refX="39" id="ZERO_OR_MORE_END"><circle r="6" cy="18" cx="9" fill="white" stroke="gray"/><path d="M21,18 Q39,0 57,18 Q39,36 21,18" fill="none" stroke="gray"/></marker></defs><path style="stroke: gray; fill: none;" marker-start="url(#ONLY_ONE_START)" marker-end="url(#ONLY_ONE_END)" stroke-dasharray="8,8" d="M130.2753041088581,165L123.53145891924699,175.16666666666666C116.78761372963588,185.33333333333334,103.29992335041364,205.66666666666666,96.55607816080253,224.16666666666666C89.8122329711914,242.66666666666666,89.8122329711914,259.3333333333333,89.8122329711914,267.6666666666667L89.8122329711914,276" class="er relationshipLine"/><path style="stroke: gray; fill: none;" marker-start="url(#ONLY_ONE_START)" marker-end="url(#ONLY_ONE_END)" stroke-dasharray="8,8" d="M219.1613948047161,165L225.90523999432722,175.16666666666666C232.64908518393835,185.33333333333334,246.13677556316057,205.66666666666666,252.8806207527717,240.83333333333334C259.6244659423828,276,259.6244659423828,326,259.6244659423828,376C259.6244659423828,426,259.6244659423828,476,253.57702174825206,509.3333333333333C247.52957755412135,542.6666666666666,235.43468916585982,559.3333333333334,229.38724497172907,567.6666666666666L223.33980077759833,576" class="er relationshipLine"/><path style="stroke: gray; fill: none;" marker-start="url(#ONLY_ONE_START)" marker-end="url(#ONLY_ONE_END)" stroke-dasharray="8,8" d="M89.8122329711914,476L89.8122329711914,484.3333333333333C89.8122329711914,492.6666666666667,89.8122329711914,509.3333333333333,95.85967716532214,526C101.9071213594529,542.6666666666666,114.0020097477144,559.3333333333334,120.04945394184513,567.6666666666666L126.09689813597589,576" class="er relationshipLine"/><path style="stroke: gray; fill: none;" marker-start="url(#ONLY_ONE_START)" marker-end="url(#ONLY_ONE_END)" stroke-dasharray="8,8" d="M491.50847244262695,176L491.50847244262695,184.33333333333334C491.50847244262695,192.66666666666666,491.50847244262695,209.33333333333334,491.50847244262695,229.66666666666666C491.50847244262695,250,491.50847244262695,274,491.50847244262695,286L491.50847244262695,298" class="er relationshipLine"/><g transform="translate(69.26592636108398,31 )" id="entity-ParkingLotMonitor-98085c14-94f4-54c9-b8da-06333ab4ecfd"><rect height="134" width="210.90484619140625" y="0" x="0" class="er entityBox"/><text style="dominant-baseline: middle; text-anchor: middle; font-size: 12px;" transform="translate(105.45242309570312,12)" y="0" x="0" id="text-entity-ParkingLotMonitor-98085c14-94f4-54c9-b8da-06333ab4ecfd" class="er entityLabel">ParkingLotMonitor</text><rect height="22" width="53.891357421875" y="24" x="0" class="er attributeBoxOdd"/><text style="dominant-baseline: middle; font-size: 10.2px;" transform="translate(5,35)" y="0" x="0" id="text-entity-ParkingLotMonitor-98085c14-94f4-54c9-b8da-06333ab4ecfd-attr-1-type" class="er entityLabel">int</text><rect height="22" width="134.3258056640625" y="24" x="53.891357421875" class="er attributeBoxOdd"/><text style="dominant-baseline: middle; font-size: 10.2px;" transform="translate(58.891357421875,35)" y="0" x="0" id="text-entity-ParkingLotMonitor-98085c14-94f4-54c9-b8da-06333ab4ecfd-attr-1-name" class="er entityLabel">Id</text><rect height="22" width="22.68768310546875" y="24" x="188.2171630859375" class="er attributeBoxOdd"/><text style="dominant-baseline: middle; font-size: 10.2px;" transform="translate(193.2171630859375,35)" y="0" x="0" id="text-entity-ParkingLotMonitor-98085c14-94f4-54c9-b8da-06333ab4ecfd-attr-1-key" class="er entityLabel">PK</text><rect height="22" width="53.891357421875" y="46" x="0" class="er attributeBoxEven"/><text style="dominant-baseline: middle; font-size: 10.2px;" transform="translate(5,57)" y="0" x="0" id="text-entity-ParkingLotMonitor-98085c14-94f4-54c9-b8da-06333ab4ecfd-attr-2-type" class="er entityLabel">int</text><rect height="22" width="134.3258056640625" y="46" x="53.891357421875" class="er attributeBoxEven"/><text style="dominant-baseline: middle; font-size: 10.2px;" transform="translate(58.891357421875,57)" y="0" x="0" id="text-entity-ParkingLotMonitor-98085c14-94f4-54c9-b8da-06333ab4ecfd-attr-2-name" class="er entityLabel">ParkingLotId</text><rect height="22" width="22.68768310546875" y="46" x="188.2171630859375" class="er attributeBoxEven"/><text style="dominant-baseline: middle; font-size: 10.2px;" transform="translate(193.2171630859375,57)" y="0" x="0" id="text-entity-ParkingLotMonitor-98085c14-94f4-54c9-b8da-06333ab4ecfd-attr-2-key" class="er entityLabel">FK</text><rect height="22" width="53.891357421875" y="68" x="0" class="er attributeBoxOdd"/><text style="dominant-baseline: middle; font-size: 10.2px;" transform="translate(5,79)" y="0" x="0" id="text-entity-ParkingLotMonitor-98085c14-94f4-54c9-b8da-06333ab4ecfd-attr-3-type" class="er entityLabel">double</text><rect height="22" width="134.3258056640625" y="68" x="53.891357421875" class="er attributeBoxOdd"/><text style="dominant-baseline: middle; font-size: 10.2px;" transform="translate(58.891357421875,79)" y="0" x="0" id="text-entity-ParkingLotMonitor-98085c14-94f4-54c9-b8da-06333ab4ecfd-attr-3-name" class="er entityLabel">ProbabilityParkingAvailable</text><rect height="22" width="22.68768310546875" y="68" x="188.2171630859375" class="er attributeBoxOdd"/><text style="dominant-baseline: middle; font-size: 10.2px;" transform="translate(193.2171630859375,79)" y="0" x="0" id="text-entity-ParkingLotMonitor-98085c14-94f4-54c9-b8da-06333ab4ecfd-attr-3-key" class="er entityLabel"/><rect height="22" width="53.891357421875" y="90" x="0" class="er attributeBoxEven"/><text style="dominant-baseline: middle; font-size: 10.2px;" transform="translate(5,101)" y="0" x="0" id="text-entity-ParkingLotMonitor-98085c14-94f4-54c9-b8da-06333ab4ecfd-attr-4-type" class="er entityLabel">DataTime</text><rect height="22" width="134.3258056640625" y="90" x="53.891357421875" class="er attributeBoxEven"/><text style="dominant-baseline: middle; font-size: 10.2px;" transform="translate(58.891357421875,101)" y="0" x="0" id="text-entity-ParkingLotMonitor-98085c14-94f4-54c9-b8da-06333ab4ecfd-attr-4-name" class="er entityLabel">LastUpdated</text><rect height="22" width="22.68768310546875" y="90" x="188.2171630859375" class="er attributeBoxEven"/><text style="dominant-baseline: middle; font-size: 10.2px;" transform="translate(193.2171630859375,101)" y="0" x="0" id="text-entity-ParkingLotMonitor-98085c14-94f4-54c9-b8da-06333ab4ecfd-attr-4-key" class="er entityLabel"/><rect height="22" width="53.891357421875" y="112" x="0" class="er attributeBoxOdd"/><text style="dominant-baseline: middle; font-size: 10.2px;" transform="translate(5,123)" y="0" x="0" id="text-entity-ParkingLotMonitor-98085c14-94f4-54c9-b8da-06333ab4ecfd-attr-5-type" class="er entityLabel">Boolean</text><rect height="22" width="134.3258056640625" y="112" x="53.891357421875" class="er attributeBoxOdd"/><text style="dominant-baseline: middle; font-size: 10.2px;" transform="translate(58.891357421875,123)" y="0" x="0" id="text-entity-ParkingLotMonitor-98085c14-94f4-54c9-b8da-06333ab4ecfd-attr-5-name" class="er entityLabel">Status</text><rect height="22" width="22.68768310546875" y="112" x="188.2171630859375" class="er attributeBoxOdd"/><text style="dominant-baseline: middle; font-size: 10.2px;" transform="translate(193.2171630859375,123)" y="0" x="0" id="text-entity-ParkingLotMonitor-98085c14-94f4-54c9-b8da-06333ab4ecfd-attr-5-key" class="er entityLabel"/></g><g transform="translate(20,276 )" id="entity-ParkingLot-d604f45d-b491-54f9-8913-bfd9b2a801d3"><rect height="200" width="139.6244659423828" y="0" x="0" class="er entityBox"/><text style="dominant-baseline: middle; text-anchor: middle; font-size: 12px;" transform="translate(69.8122329711914,12)" y="0" x="0" id="text-entity-ParkingLot-d604f45d-b491-54f9-8913-bfd9b2a801d3" class="er entityLabel">ParkingLot</text><rect height="22" width="46.649749755859375" y="24" x="0" class="er attributeBoxOdd"/><text style="dominant-baseline: middle; font-size: 10.2px;" transform="translate(5,35)" y="0" x="0" id="text-entity-ParkingLot-d604f45d-b491-54f9-8913-bfd9b2a801d3-attr-1-type" class="er entityLabel">int</text><rect height="22" width="70.28703308105469" y="24" x="46.649749755859375" class="er attributeBoxOdd"/><text style="dominant-baseline: middle; font-size: 10.2px;" transform="translate(51.649749755859375,35)" y="0" x="0" id="text-entity-ParkingLot-d604f45d-b491-54f9-8913-bfd9b2a801d3-attr-1-name" class="er entityLabel">Id</text><rect height="22" width="22.68768310546875" y="24" x="116.93678283691406" class="er attributeBoxOdd"/><text style="dominant-baseline: middle; font-size: 10.2px;" transform="translate(121.93678283691406,35)" y="0" x="0" id="text-entity-ParkingLot-d604f45d-b491-54f9-8913-bfd9b2a801d3-attr-1-key" class="er entityLabel">PK</text><rect height="22" width="46.649749755859375" y="46" x="0" class="er attributeBoxEven"/><text style="dominant-baseline: middle; font-size: 10.2px;" transform="translate(5,57)" y="0" x="0" id="text-entity-ParkingLot-d604f45d-b491-54f9-8913-bfd9b2a801d3-attr-2-type" class="er entityLabel">string</text><rect height="22" width="70.28703308105469" y="46" x="46.649749755859375" class="er attributeBoxEven"/><text style="dominant-baseline: middle; font-size: 10.2px;" transform="translate(51.649749755859375,57)" y="0" x="0" id="text-entity-ParkingLot-d604f45d-b491-54f9-8913-bfd9b2a801d3-attr-2-name" class="er entityLabel">Name</text><rect height="22" width="22.68768310546875" y="46" x="116.93678283691406" class="er attributeBoxEven"/><text style="dominant-baseline: middle; font-size: 10.2px;" transform="translate(121.93678283691406,57)" y="0" x="0" id="text-entity-ParkingLot-d604f45d-b491-54f9-8913-bfd9b2a801d3-attr-2-key" class="er entityLabel"/><rect height="22" width="46.649749755859375" y="68" x="0" class="er attributeBoxOdd"/><text style="dominant-baseline: middle; font-size: 10.2px;" transform="translate(5,79)" y="0" x="0" id="text-entity-ParkingLot-d604f45d-b491-54f9-8913-bfd9b2a801d3-attr-3-type" class="er entityLabel">string</text><rect height="22" width="70.28703308105469" y="68" x="46.649749755859375" class="er attributeBoxOdd"/><text style="dominant-baseline: middle; font-size: 10.2px;" transform="translate(51.649749755859375,79)" y="0" x="0" id="text-entity-ParkingLot-d604f45d-b491-54f9-8913-bfd9b2a801d3-attr-3-name" class="er entityLabel">Address</text><rect height="22" width="22.68768310546875" y="68" x="116.93678283691406" class="er attributeBoxOdd"/><text style="dominant-baseline: middle; font-size: 10.2px;" transform="translate(121.93678283691406,79)" y="0" x="0" id="text-entity-ParkingLot-d604f45d-b491-54f9-8913-bfd9b2a801d3-attr-3-key" class="er entityLabel"/><rect height="22" width="46.649749755859375" y="90" x="0" class="er attributeBoxEven"/><text style="dominant-baseline: middle; font-size: 10.2px;" transform="translate(5,101)" y="0" x="0" id="text-entity-ParkingLot-d604f45d-b491-54f9-8913-bfd9b2a801d3-attr-4-type" class="er entityLabel">string</text><rect height="22" width="70.28703308105469" y="90" x="46.649749755859375" class="er attributeBoxEven"/><text style="dominant-baseline: middle; font-size: 10.2px;" transform="translate(51.649749755859375,101)" y="0" x="0" id="text-entity-ParkingLot-d604f45d-b491-54f9-8913-bfd9b2a801d3-attr-4-name" class="er entityLabel">Image</text><rect height="22" width="22.68768310546875" y="90" x="116.93678283691406" class="er attributeBoxEven"/><text style="dominant-baseline: middle; font-size: 10.2px;" transform="translate(121.93678283691406,101)" y="0" x="0" id="text-entity-ParkingLot-d604f45d-b491-54f9-8913-bfd9b2a801d3-attr-4-key" class="er entityLabel"/><rect height="22" width="46.649749755859375" y="112" x="0" class="er attributeBoxOdd"/><text style="dominant-baseline: middle; font-size: 10.2px;" transform="translate(5,123)" y="0" x="0" id="text-entity-ParkingLot-d604f45d-b491-54f9-8913-bfd9b2a801d3-attr-5-type" class="er entityLabel">string</text><rect height="22" width="70.28703308105469" y="112" x="46.649749755859375" class="er attributeBoxOdd"/><text style="dominant-baseline: middle; font-size: 10.2px;" transform="translate(51.649749755859375,123)" y="0" x="0" id="text-entity-ParkingLot-d604f45d-b491-54f9-8913-bfd9b2a801d3-attr-5-name" class="er entityLabel">Hours</text><rect height="22" width="22.68768310546875" y="112" x="116.93678283691406" class="er attributeBoxOdd"/><text style="dominant-baseline: middle; font-size: 10.2px;" transform="translate(121.93678283691406,123)" y="0" x="0" id="text-entity-ParkingLot-d604f45d-b491-54f9-8913-bfd9b2a801d3-attr-5-key" class="er entityLabel"/><rect height="22" width="46.649749755859375" y="134" x="0" class="er attributeBoxEven"/><text style="dominant-baseline: middle; font-size: 10.2px;" transform="translate(5,145)" y="0" x="0" id="text-entity-ParkingLot-d604f45d-b491-54f9-8913-bfd9b2a801d3-attr-6-type" class="er entityLabel">Boolean</text><rect height="22" width="70.28703308105469" y="134" x="46.649749755859375" class="er attributeBoxEven"/><text style="dominant-baseline: middle; font-size: 10.2px;" transform="translate(51.649749755859375,145)" y="0" x="0" id="text-entity-ParkingLot-d604f45d-b491-54f9-8913-bfd9b2a801d3-attr-6-name" class="er entityLabel">IsPaidParking</text><rect height="22" width="22.68768310546875" y="134" x="116.93678283691406" class="er attributeBoxEven"/><text style="dominant-baseline: middle; font-size: 10.2px;" transform="translate(121.93678283691406,145)" y="0" x="0" id="text-entity-ParkingLot-d604f45d-b491-54f9-8913-bfd9b2a801d3-attr-6-key" class="er entityLabel"/><rect height="22" width="46.649749755859375" y="156" x="0" class="er attributeBoxOdd"/><text style="dominant-baseline: middle; font-size: 10.2px;" transform="translate(5,167)" y="0" x="0" id="text-entity-ParkingLot-d604f45d-b491-54f9-8913-bfd9b2a801d3-attr-7-type" class="er entityLabel">string</text><rect height="22" width="70.28703308105469" y="156" x="46.649749755859375" class="er attributeBoxOdd"/><text style="dominant-baseline: middle; font-size: 10.2px;" transform="translate(51.649749755859375,167)" y="0" x="0" id="text-entity-ParkingLot-d604f45d-b491-54f9-8913-bfd9b2a801d3-attr-7-name" class="er entityLabel">Latitude</text><rect height="22" width="22.68768310546875" y="156" x="116.93678283691406" class="er attributeBoxOdd"/><text style="dominant-baseline: middle; font-size: 10.2px;" transform="translate(121.93678283691406,167)" y="0" x="0" id="text-entity-ParkingLot-d604f45d-b491-54f9-8913-bfd9b2a801d3-attr-7-key" class="er entityLabel"/><rect height="22" width="46.649749755859375" y="178" x="0" class="er attributeBoxEven"/><text style="dominant-baseline: middle; font-size: 10.2px;" transform="translate(5,189)" y="0" x="0" id="text-entity-ParkingLot-d604f45d-b491-54f9-8913-bfd9b2a801d3-attr-8-type" class="er entityLabel">string</text><rect height="22" width="70.28703308105469" y="178" x="46.649749755859375" class="er attributeBoxEven"/><text style="dominant-baseline: middle; font-size: 10.2px;" transform="translate(51.649749755859375,189)" y="0" x="0" id="text-entity-ParkingLot-d604f45d-b491-54f9-8913-bfd9b2a801d3-attr-8-name" class="er entityLabel">Longitude</text><rect height="22" width="22.68768310546875" y="178" x="116.93678283691406" class="er attributeBoxEven"/><text style="dominant-baseline: middle; font-size: 10.2px;" transform="translate(121.93678283691406,189)" y="0" x="0" id="text-entity-ParkingLot-d604f45d-b491-54f9-8913-bfd9b2a801d3-attr-8-key" class="er entityLabel"/></g><g transform="translate(88.10701370239258,576 )" id="entity-ParkingLotLog-37aa81c6-b268-504f-9713-04c34c33949c"><rect height="134" width="173.22267150878906" y="0" x="0" class="er entityBox"/><text style="dominant-baseline: middle; text-anchor: middle; font-size: 12px;" transform="translate(86.61133575439453,12)" y="0" x="0" id="text-entity-ParkingLotLog-37aa81c6-b268-504f-9713-04c34c33949c" class="er entityLabel">ParkingLotLog</text><rect height="22" width="54.095550537109375" y="24" x="0" class="er attributeBoxOdd"/><text style="dominant-baseline: middle; font-size: 10.2px;" transform="translate(5,35)" y="0" x="0" id="text-entity-ParkingLotLog-37aa81c6-b268-504f-9713-04c34c33949c-attr-1-type" class="er entityLabel">int</text><rect height="22" width="96.43943786621094" y="24" x="54.095550537109375" class="er attributeBoxOdd"/><text style="dominant-baseline: middle; font-size: 10.2px;" transform="translate(59.095550537109375,35)" y="0" x="0" id="text-entity-ParkingLotLog-37aa81c6-b268-504f-9713-04c34c33949c-attr-1-name" class="er entityLabel">Id</text><rect height="22" width="22.68768310546875" y="24" x="150.5349884033203" class="er attributeBoxOdd"/><text style="dominant-baseline: middle; font-size: 10.2px;" transform="translate(155.5349884033203,35)" y="0" x="0" id="text-entity-ParkingLotLog-37aa81c6-b268-504f-9713-04c34c33949c-attr-1-key" class="er entityLabel">PK</text><rect height="22" width="54.095550537109375" y="46" x="0" class="er attributeBoxEven"/><text style="dominant-baseline: middle; font-size: 10.2px;" transform="translate(5,57)" y="0" x="0" id="text-entity-ParkingLotLog-37aa81c6-b268-504f-9713-04c34c33949c-attr-2-type" class="er entityLabel">int</text><rect height="22" width="96.43943786621094" y="46" x="54.095550537109375" class="er attributeBoxEven"/><text style="dominant-baseline: middle; font-size: 10.2px;" transform="translate(59.095550537109375,57)" y="0" x="0" id="text-entity-ParkingLotLog-37aa81c6-b268-504f-9713-04c34c33949c-attr-2-name" class="er entityLabel">ParkingLotId</text><rect height="22" width="22.68768310546875" y="46" x="150.5349884033203" class="er attributeBoxEven"/><text style="dominant-baseline: middle; font-size: 10.2px;" transform="translate(155.5349884033203,57)" y="0" x="0" id="text-entity-ParkingLotLog-37aa81c6-b268-504f-9713-04c34c33949c-attr-2-key" class="er entityLabel">FK</text><rect height="22" width="54.095550537109375" y="68" x="0" class="er attributeBoxOdd"/><text style="dominant-baseline: middle; font-size: 10.2px;" transform="translate(5,79)" y="0" x="0" id="text-entity-ParkingLotLog-37aa81c6-b268-504f-9713-04c34c33949c-attr-3-type" class="er entityLabel">int</text><rect height="22" width="96.43943786621094" y="68" x="54.095550537109375" class="er attributeBoxOdd"/><text style="dominant-baseline: middle; font-size: 10.2px;" transform="translate(59.095550537109375,79)" y="0" x="0" id="text-entity-ParkingLotLog-37aa81c6-b268-504f-9713-04c34c33949c-attr-3-name" class="er entityLabel">LoggedByMonitorId</text><rect height="22" width="22.68768310546875" y="68" x="150.5349884033203" class="er attributeBoxOdd"/><text style="dominant-baseline: middle; font-size: 10.2px;" transform="translate(155.5349884033203,79)" y="0" x="0" id="text-entity-ParkingLotLog-37aa81c6-b268-504f-9713-04c34c33949c-attr-3-key" class="er entityLabel">FK</text><rect height="22" width="54.095550537109375" y="90" x="0" class="er attributeBoxEven"/><text style="dominant-baseline: middle; font-size: 10.2px;" transform="translate(5,101)" y="0" x="0" id="text-entity-ParkingLotLog-37aa81c6-b268-504f-9713-04c34c33949c-attr-4-type" class="er entityLabel">int</text><rect height="22" width="96.43943786621094" y="90" x="54.095550537109375" class="er attributeBoxEven"/><text style="dominant-baseline: middle; font-size: 10.2px;" transform="translate(59.095550537109375,101)" y="0" x="0" id="text-entity-ParkingLotLog-37aa81c6-b268-504f-9713-04c34c33949c-attr-4-name" class="er entityLabel">FreeParkingSpaces</text><rect height="22" width="22.68768310546875" y="90" x="150.5349884033203" class="er attributeBoxEven"/><text style="dominant-baseline: middle; font-size: 10.2px;" transform="translate(155.5349884033203,101)" y="0" x="0" id="text-entity-ParkingLotLog-37aa81c6-b268-504f-9713-04c34c33949c-attr-4-key" class="er entityLabel"/><rect height="22" width="54.095550537109375" y="112" x="0" class="er attributeBoxOdd"/><text style="dominant-baseline: middle; font-size: 10.2px;" transform="translate(5,123)" y="0" x="0" id="text-entity-ParkingLotLog-37aa81c6-b268-504f-9713-04c34c33949c-attr-5-type" class="er entityLabel">DateTime</text><rect height="22" width="96.43943786621094" y="112" x="54.095550537109375" class="er attributeBoxOdd"/><text style="dominant-baseline: middle; font-size: 10.2px;" transform="translate(59.095550537109375,123)" y="0" x="0" id="text-entity-ParkingLotLog-37aa81c6-b268-504f-9713-04c34c33949c-attr-5-name" class="er entityLabel">TimeStamp</text><rect height="22" width="22.68768310546875" y="112" x="150.5349884033203" class="er attributeBoxOdd"/><text style="dominant-baseline: middle; font-size: 10.2px;" transform="translate(155.5349884033203,123)" y="0" x="0" id="text-entity-ParkingLotLog-37aa81c6-b268-504f-9713-04c34c33949c-attr-5-key" class="er entityLabel"/></g><g transform="translate(433.4874839782715,20 )" id="entity-User-818c511a-4a32-5484-ba70-875d765a9175"><rect height="156" width="116.04197692871094" y="0" x="0" class="er entityBox"/><text style="dominant-baseline: middle; text-anchor: middle; font-size: 12px;" transform="translate(58.02098846435547,12)" y="0" x="0" id="text-entity-User-818c511a-4a32-5484-ba70-875d765a9175" class="er entityLabel">User</text><rect height="22" width="36.61909484863281" y="24" x="0" class="er attributeBoxOdd"/><text style="dominant-baseline: middle; font-size: 10.2px;" transform="translate(5,35)" y="0" x="0" id="text-entity-User-818c511a-4a32-5484-ba70-875d765a9175-attr-1-type" class="er entityLabel">int</text><rect height="22" width="56.735198974609375" y="24" x="36.61909484863281" class="er attributeBoxOdd"/><text style="dominant-baseline: middle; font-size: 10.2px;" transform="translate(41.61909484863281,35)" y="0" x="0" id="text-entity-User-818c511a-4a32-5484-ba70-875d765a9175-attr-1-name" class="er entityLabel">Id</text><rect height="22" width="22.68768310546875" y="24" x="93.35429382324219" class="er attributeBoxOdd"/><text style="dominant-baseline: middle; font-size: 10.2px;" transform="translate(98.35429382324219,35)" y="0" x="0" id="text-entity-User-818c511a-4a32-5484-ba70-875d765a9175-attr-1-key" class="er entityLabel">PK</text><rect height="22" width="36.61909484863281" y="46" x="0" class="er attributeBoxEven"/><text style="dominant-baseline: middle; font-size: 10.2px;" transform="translate(5,57)" y="0" x="0" id="text-entity-User-818c511a-4a32-5484-ba70-875d765a9175-attr-2-type" class="er entityLabel">string</text><rect height="22" width="56.735198974609375" y="46" x="36.61909484863281" class="er attributeBoxEven"/><text style="dominant-baseline: middle; font-size: 10.2px;" transform="translate(41.61909484863281,57)" y="0" x="0" id="text-entity-User-818c511a-4a32-5484-ba70-875d765a9175-attr-2-name" class="er entityLabel">Username</text><rect height="22" width="22.68768310546875" y="46" x="93.35429382324219" class="er attributeBoxEven"/><text style="dominant-baseline: middle; font-size: 10.2px;" transform="translate(98.35429382324219,57)" y="0" x="0" id="text-entity-User-818c511a-4a32-5484-ba70-875d765a9175-attr-2-key" class="er entityLabel"/><rect height="22" width="36.61909484863281" y="68" x="0" class="er attributeBoxOdd"/><text style="dominant-baseline: middle; font-size: 10.2px;" transform="translate(5,79)" y="0" x="0" id="text-entity-User-818c511a-4a32-5484-ba70-875d765a9175-attr-3-type" class="er entityLabel">string</text><rect height="22" width="56.735198974609375" y="68" x="36.61909484863281" class="er attributeBoxOdd"/><text style="dominant-baseline: middle; font-size: 10.2px;" transform="translate(41.61909484863281,79)" y="0" x="0" id="text-entity-User-818c511a-4a32-5484-ba70-875d765a9175-attr-3-name" class="er entityLabel">Password</text><rect height="22" width="22.68768310546875" y="68" x="93.35429382324219" class="er attributeBoxOdd"/><text style="dominant-baseline: middle; font-size: 10.2px;" transform="translate(98.35429382324219,79)" y="0" x="0" id="text-entity-User-818c511a-4a32-5484-ba70-875d765a9175-attr-3-key" class="er entityLabel"/><rect height="22" width="36.61909484863281" y="90" x="0" class="er attributeBoxEven"/><text style="dominant-baseline: middle; font-size: 10.2px;" transform="translate(5,101)" y="0" x="0" id="text-entity-User-818c511a-4a32-5484-ba70-875d765a9175-attr-4-type" class="er entityLabel">string</text><rect height="22" width="56.735198974609375" y="90" x="36.61909484863281" class="er attributeBoxEven"/><text style="dominant-baseline: middle; font-size: 10.2px;" transform="translate(41.61909484863281,101)" y="0" x="0" id="text-entity-User-818c511a-4a32-5484-ba70-875d765a9175-attr-4-name" class="er entityLabel">Email</text><rect height="22" width="22.68768310546875" y="90" x="93.35429382324219" class="er attributeBoxEven"/><text style="dominant-baseline: middle; font-size: 10.2px;" transform="translate(98.35429382324219,101)" y="0" x="0" id="text-entity-User-818c511a-4a32-5484-ba70-875d765a9175-attr-4-key" class="er entityLabel"/><rect height="22" width="36.61909484863281" y="112" x="0" class="er attributeBoxOdd"/><text style="dominant-baseline: middle; font-size: 10.2px;" transform="translate(5,123)" y="0" x="0" id="text-entity-User-818c511a-4a32-5484-ba70-875d765a9175-attr-5-type" class="er entityLabel">string</text><rect height="22" width="56.735198974609375" y="112" x="36.61909484863281" class="er attributeBoxOdd"/><text style="dominant-baseline: middle; font-size: 10.2px;" transform="translate(41.61909484863281,123)" y="0" x="0" id="text-entity-User-818c511a-4a32-5484-ba70-875d765a9175-attr-5-name" class="er entityLabel">FirstName</text><rect height="22" width="22.68768310546875" y="112" x="93.35429382324219" class="er attributeBoxOdd"/><text style="dominant-baseline: middle; font-size: 10.2px;" transform="translate(98.35429382324219,123)" y="0" x="0" id="text-entity-User-818c511a-4a32-5484-ba70-875d765a9175-attr-5-key" class="er entityLabel"/><rect height="22" width="36.61909484863281" y="134" x="0" class="er attributeBoxEven"/><text style="dominant-baseline: middle; font-size: 10.2px;" transform="translate(5,145)" y="0" x="0" id="text-entity-User-818c511a-4a32-5484-ba70-875d765a9175-attr-6-type" class="er entityLabel">string</text><rect height="22" width="56.735198974609375" y="134" x="36.61909484863281" class="er attributeBoxEven"/><text style="dominant-baseline: middle; font-size: 10.2px;" transform="translate(41.61909484863281,145)" y="0" x="0" id="text-entity-User-818c511a-4a32-5484-ba70-875d765a9175-attr-6-name" class="er entityLabel">LastName</text><rect height="22" width="22.68768310546875" y="134" x="93.35429382324219" class="er attributeBoxEven"/><text style="dominant-baseline: middle; font-size: 10.2px;" transform="translate(98.35429382324219,145)" y="0" x="0" id="text-entity-User-818c511a-4a32-5484-ba70-875d765a9175-attr-6-key" class="er entityLabel"/></g><g transform="translate(391.21387100219727,298 )" id="entity-ParkingRequestLog-e1a042f2-e3fe-5a54-8a03-0a7753318739"><rect height="156" width="200.58920288085938" y="0" x="0" class="er entityBox"/><text style="dominant-baseline: middle; text-anchor: middle; font-size: 12px;" transform="translate(100.29460144042969,12)" y="0" x="0" id="text-entity-ParkingRequestLog-e1a042f2-e3fe-5a54-8a03-0a7753318739" class="er entityLabel">ParkingRequestLog</text><rect height="22" width="54.095550537109375" y="24" x="0" class="er attributeBoxOdd"/><text style="dominant-baseline: middle; font-size: 10.2px;" transform="translate(5,35)" y="0" x="0" id="text-entity-ParkingRequestLog-e1a042f2-e3fe-5a54-8a03-0a7753318739-attr-1-type" class="er entityLabel">int</text><rect height="22" width="123.80596923828125" y="24" x="54.095550537109375" class="er attributeBoxOdd"/><text style="dominant-baseline: middle; font-size: 10.2px;" transform="translate(59.095550537109375,35)" y="0" x="0" id="text-entity-ParkingRequestLog-e1a042f2-e3fe-5a54-8a03-0a7753318739-attr-1-name" class="er entityLabel">Id</text><rect height="22" width="22.68768310546875" y="24" x="177.90151977539062" class="er attributeBoxOdd"/><text style="dominant-baseline: middle; font-size: 10.2px;" transform="translate(182.90151977539062,35)" y="0" x="0" id="text-entity-ParkingRequestLog-e1a042f2-e3fe-5a54-8a03-0a7753318739-attr-1-key" class="er entityLabel">PK</text><rect height="22" width="54.095550537109375" y="46" x="0" class="er attributeBoxEven"/><text style="dominant-baseline: middle; font-size: 10.2px;" transform="translate(5,57)" y="0" x="0" id="text-entity-ParkingRequestLog-e1a042f2-e3fe-5a54-8a03-0a7753318739-attr-2-type" class="er entityLabel">float</text><rect height="22" width="123.80596923828125" y="46" x="54.095550537109375" class="er attributeBoxEven"/><text style="dominant-baseline: middle; font-size: 10.2px;" transform="translate(59.095550537109375,57)" y="0" x="0" id="text-entity-ParkingRequestLog-e1a042f2-e3fe-5a54-8a03-0a7753318739-attr-2-name" class="er entityLabel">AreaOfInterestLatitude</text><rect height="22" width="22.68768310546875" y="46" x="177.90151977539062" class="er attributeBoxEven"/><text style="dominant-baseline: middle; font-size: 10.2px;" transform="translate(182.90151977539062,57)" y="0" x="0" id="text-entity-ParkingRequestLog-e1a042f2-e3fe-5a54-8a03-0a7753318739-attr-2-key" class="er entityLabel"/><rect height="22" width="54.095550537109375" y="68" x="0" class="er attributeBoxOdd"/><text style="dominant-baseline: middle; font-size: 10.2px;" transform="translate(5,79)" y="0" x="0" id="text-entity-ParkingRequestLog-e1a042f2-e3fe-5a54-8a03-0a7753318739-attr-3-type" class="er entityLabel">float</text><rect height="22" width="123.80596923828125" y="68" x="54.095550537109375" class="er attributeBoxOdd"/><text style="dominant-baseline: middle; font-size: 10.2px;" transform="translate(59.095550537109375,79)" y="0" x="0" id="text-entity-ParkingRequestLog-e1a042f2-e3fe-5a54-8a03-0a7753318739-attr-3-name" class="er entityLabel">AreaOfInterestLongitude</text><rect height="22" width="22.68768310546875" y="68" x="177.90151977539062" class="er attributeBoxOdd"/><text style="dominant-baseline: middle; font-size: 10.2px;" transform="translate(182.90151977539062,79)" y="0" x="0" id="text-entity-ParkingRequestLog-e1a042f2-e3fe-5a54-8a03-0a7753318739-attr-3-key" class="er entityLabel"/><rect height="22" width="54.095550537109375" y="90" x="0" class="er attributeBoxEven"/><text style="dominant-baseline: middle; font-size: 10.2px;" transform="translate(5,101)" y="0" x="0" id="text-entity-ParkingRequestLog-e1a042f2-e3fe-5a54-8a03-0a7753318739-attr-4-type" class="er entityLabel">int</text><rect height="22" width="123.80596923828125" y="90" x="54.095550537109375" class="er attributeBoxEven"/><text style="dominant-baseline: middle; font-size: 10.2px;" transform="translate(59.095550537109375,101)" y="0" x="0" id="text-entity-ParkingRequestLog-e1a042f2-e3fe-5a54-8a03-0a7753318739-attr-4-name" class="er entityLabel">UserId</text><rect height="22" width="22.68768310546875" y="90" x="177.90151977539062" class="er attributeBoxEven"/><text style="dominant-baseline: middle; font-size: 10.2px;" transform="translate(182.90151977539062,101)" y="0" x="0" id="text-entity-ParkingRequestLog-e1a042f2-e3fe-5a54-8a03-0a7753318739-attr-4-key" class="er entityLabel">FK</text><rect height="22" width="54.095550537109375" y="112" x="0" class="er attributeBoxOdd"/><text style="dominant-baseline: middle; font-size: 10.2px;" transform="translate(5,123)" y="0" x="0" id="text-entity-ParkingRequestLog-e1a042f2-e3fe-5a54-8a03-0a7753318739-attr-5-type" class="er entityLabel">String</text><rect height="22" width="123.80596923828125" y="112" x="54.095550537109375" class="er attributeBoxOdd"/><text style="dominant-baseline: middle; font-size: 10.2px;" transform="translate(59.095550537109375,123)" y="0" x="0" id="text-entity-ParkingRequestLog-e1a042f2-e3fe-5a54-8a03-0a7753318739-attr-5-name" class="er entityLabel">UserIpAddress</text><rect height="22" width="22.68768310546875" y="112" x="177.90151977539062" class="er attributeBoxOdd"/><text style="dominant-baseline: middle; font-size: 10.2px;" transform="translate(182.90151977539062,123)" y="0" x="0" id="text-entity-ParkingRequestLog-e1a042f2-e3fe-5a54-8a03-0a7753318739-attr-5-key" class="er entityLabel"/><rect height="22" width="54.095550537109375" y="134" x="0" class="er attributeBoxEven"/><text style="dominant-baseline: middle; font-size: 10.2px;" transform="translate(5,145)" y="0" x="0" id="text-entity-ParkingRequestLog-e1a042f2-e3fe-5a54-8a03-0a7753318739-attr-6-type" class="er entityLabel">DateTime</text><rect height="22" width="123.80596923828125" y="134" x="54.095550537109375" class="er attributeBoxEven"/><text style="dominant-baseline: middle; font-size: 10.2px;" transform="translate(59.095550537109375,145)" y="0" x="0" id="text-entity-ParkingRequestLog-e1a042f2-e3fe-5a54-8a03-0a7753318739-attr-6-name" class="er entityLabel">TimeStamp</text><rect height="22" width="22.68768310546875" y="134" x="177.90151977539062" class="er attributeBoxEven"/><text style="dominant-baseline: middle; font-size: 10.2px;" transform="translate(182.90151977539062,145)" y="0" x="0" id="text-entity-ParkingRequestLog-e1a042f2-e3fe-5a54-8a03-0a7753318739-attr-6-key" class="er entityLabel"/></g><rect height="14" width="17.861328125" y="209.90731811523438" x="90.55821990966797" class="er relationshipLabelBox"/><text style="text-anchor: middle; dominant-baseline: middle; font-size: 12px;" y="216.90731811523438" x="99.48888397216797" id="rel135" class="er relationshipLabel">has</text><rect height="14" width="17.861328125" y="363.2198486328125" x="250.69281005859375" class="er relationshipLabelBox"/><text style="text-anchor: middle; dominant-baseline: middle; font-size: 12px;" y="370.2198486328125" x="259.62347412109375" id="rel136" class="er relationshipLabel">has</text><rect height="14" width="17.861328125" y="522.7127685546875" x="88.37287902832031" class="er relationshipLabelBox"/><text style="text-anchor: middle; dominant-baseline: middle; font-size: 12px;" y="529.7127685546875" x="97.30354309082031" id="rel137" class="er relationshipLabel">has</text><rect height="14" width="33.86328125" y="230" x="474.57684326171875" class="er relationshipLabelBox"/><text style="text-anchor: middle; dominant-baseline: middle; font-size: 12px;" y="237" x="491.50848388671875" id="rel138" class="er relationshipLabel">makes</text></svg>