<svg xmlns="http://www.w3.org/2000/svg" width="162.102" height="62.877" viewBox="0 0 162.102 62.877"><defs><style>.a{fill:#a39461;}</style></defs><g transform="translate(-1160.448 -217.69)"><path d="M1386.722,299.8V271.511h-10.989V263.86h30.808v7.651h-10.989V299.8Z" transform="translate(-152.491 -32.703)"/><g transform="translate(1160.448 217.69)"><path d="M1493.258,263.86h8.831v21.1c0,4.981,2.465,7.857,6.932,7.857s6.932-2.876,6.932-7.857v-21.1h8.832v21.155c0,4.724-1.438,8.473-4.262,11.3s-6.676,4.211-11.5,4.211-8.678-1.386-11.5-4.211-4.262-6.572-4.262-11.3Z" transform="translate(-1396.183 -250.393)"/><path d="M1618.06,295.49a12.6,12.6,0,0,1-4.672-8.934h8.575c.668,3.286,3.03,5.288,6.932,5.288,3.646,0,5.905-1.644,5.905-4.159q0-2.849-3.851-3.543l-7.5-1.489c-6.162-1.232-9.294-4.262-9.294-10.064a9.824,9.824,0,0,1,3.9-8.01,15.684,15.684,0,0,1,10.116-3.184c8.421,0,13.812,4.365,14.172,11.554h-8.473c-.462-2.824-2.465-4.621-5.751-4.621-3.338,0-5.392,1.284-5.392,3.595,0,1.643.976,2.465,3.184,2.875l8.164,1.541c6.213,1.181,9.294,4.57,9.294,10.218a11.074,11.074,0,0,1-4.108,8.831,15.85,15.85,0,0,1-10.475,3.389c-4.365,0-7.958-1.079-10.732-3.286" transform="translate(-1481.273 -248.647)"/><path class="a" d="M1208.733,217.69h-9.657v4.745h-9.656V217.69h-9.657v4.745H1170.1V217.69h-9.657v28.971h9.656a14.485,14.485,0,0,1,28.971,0h9.654Z" transform="translate(-1160.448 -217.69)"/></g><rect class="a" width="9.657" height="4.829" transform="translate(1199.076 275.739)"/><rect class="a" width="9.657" height="4.829" transform="translate(1160.448 275.739)"/><rect class="a" width="9.657" height="4.829" transform="translate(1160.448 266.082)"/><rect class="a" width="9.657" height="4.829" transform="translate(1199.077 266.082)"/><rect class="a" width="28.971" height="4.829" transform="translate(1170.105 261.253)"/><path class="a" d="M1193.557,400.15v4.829h9.657v4.828h9.657v-4.828h9.657V400.15Z" transform="translate(-23.452 -129.24)"/><rect class="a" width="9.657" height="9.657" transform="translate(1199.077 251.596)"/><rect class="a" width="9.657" height="9.657" transform="translate(1160.448 251.597)"/></g></svg>